#!OML:ASF E:\Style4\Style4.ASF
:FULLY-SPECIFIED
:DEGREES
3322
root 2.46223 17.8016 -0.551592 12.8641 -6.7562 10.0317
lowerback 20.2386 2.97284 7.03717
upperback 11.8323 4.92002 1.92627
thorax 2.02785 2.74647 -2.75716
lowerneck 0.121814 1.6441 -1.27513
upperneck 3.12304 1.748 24.4234
head 0.629356 1.07133 7.72125
rclavicle 5.56597e-014 -7.95139e-015
rhumerus -41.3205 1.16815 -84.6454
rradius 82.6711
rwrist 26.1823
rhand 3.56849 -5.57588
rfingers 7.12502
rthumb 29.0036 -33.339
lclavicle 5.56597e-014 -7.95139e-015
lhumerus -29.216 -22.8526 95.8558
lradius 57.1322
lwrist 11.9024
lhand -2.96038 27.9369
lfingers 7.12502
lthumb 22.752 56.6153
rfemur -30.0019 9.60807 -3.38935
rtibia 34.1937
rfoot -17.3024 -16.1396
rtoes -18.8038
lfemur -21.131 3.16982 -39.7194
ltibia 20.4123
lfoot -14.3569 7.27345
ltoes -5.40844
3323
root 2.49232 17.7962 -0.53089 12.7185 -7.22065 10.0904
lowerback 20.2782 2.91763 6.98532
upperback 11.8647 4.83857 2.09225
thorax 2.01414 2.69455 -2.54088
lowerneck -0.159604 1.53103 -1.23189
upperneck 3.50668 1.47239 25.4927
head 0.816809 0.989662 8.08359
rclavicle -2.38542e-014 -4.13472e-014
rhumerus -41.3206 1.11871 -84.5039
rradius 82.9573
rwrist 26.3581
rhand 3.42392 -5.49983
rfingers 7.12502
rthumb 28.8656 -33.2866
lclavicle -2.38542e-014 -4.13472e-014
lhumerus -29.201 -22.7423 96.0891
lradius 56.8835
lwrist 12.1305
lhand -2.9779 27.9103
lfingers 7.12502
lthumb 22.7352 56.5908
rfemur -30.0475 9.95297 -3.64402
rtibia 34.2431
rfoot -17.3789 -16.0221
rtoes -18.4678
lfemur -21.0053 3.43912 -39.9496
ltibia 20.4248
lfoot -14.4996 7.43413
ltoes -5.67713
3324
root 2.51987 17.7889 -0.515478 12.6131 -7.56642 10.1917
lowerback 20.3119 2.8287 6.9342
upperback 11.8748 4.71602 2.24995
thorax 1.97654 2.62182 -2.32785
lowerneck -0.300472 1.44557 -1.04698
upperneck 3.67396 1.28617 26.2726
head 0.911748 0.926096 8.32177
rclavicle -3.18055e-015 -1.74931e-014
rhumerus -41.2845 0.992521 -84.3548
rradius 83.3015
rwrist 26.5649
rhand 3.58746 -5.46544
rfingers 7.12502
rthumb 29.0218 -33.2255
lclavicle -3.18055e-015 -1.74931e-014
lhumerus -29.2158 -22.7532 96.3117
lradius 56.7119
lwrist 12.4132
lhand -3.04114 27.8983
lfingers 7.12502
lthumb 22.6745 56.5862
rfemur -30.1032 10.1244 -3.90451
rtibia 34.3127
rfoot -17.4611 -15.8815
rtoes -17.9572
lfemur -20.8957 3.59421 -40.1943
ltibia 20.3978
lfoot -14.5237 7.60212
ltoes -6.16297
3325
root 2.54769 17.7818 -0.499025 12.5347 -7.94533 10.3078
lowerback 20.2951 2.78782 6.90294
upperback 11.9132 4.65184 2.35799
thorax 2.00854 2.58408 -2.18274
lowerneck -0.439109 1.3055 -0.727283
upperneck 3.64761 1.06627 26.9664
head 0.960104 0.831152 8.50598
rclavicle -2.22639e-014 -1.43125e-014
rhumerus -41.1661 0.746788 -84.2528
rradius 83.6376
rwrist 26.7543
rhand 3.72369 -5.48922
rfingers 7.12502
rthumb 29.1519 -33.2268
lclavicle -2.22639e-014 -1.43125e-014
lhumerus -29.1661 -23.0411 96.4396
lradius 56.5674
lwrist 12.7768
lhand -3.08598 27.8638
lfingers 7.12502
lthumb 22.6314 56.557
rfemur -30.2082 10.2946 -4.19432
rtibia 34.3976
rfoot -17.5152 -15.7386
rtoes -17.8314
lfemur -20.7976 3.7353 -40.4613
ltibia 20.3421
lfoot -14.5817 7.84557
ltoes -6.97271
3326
root 2.57804 17.7742 -0.478915 12.3906 -8.39031 10.4192
lowerback 20.3302 2.75307 6.9077
upperback 11.9617 4.60374 2.43972
thorax 2.03387 2.55703 -2.09062
lowerneck 0.00332815 1.40156 0.166862
upperneck 2.75691 1.43292 26.7016
head 0.58307 0.899463 8.23855
rclavicle 6.04305e-014 1.27222e-014
rhumerus -41.0458 0.518048 -84.199
rradius 83.8153
rwrist 27.0959
rhand 3.40058 -5.37459
rfingers 7.12502
rthumb 28.8433 -33.1652
lclavicle 6.04305e-014 1.27222e-014
lhumerus -29.1806 -23.3351 96.5676
lradius 56.4942
lwrist 13.1033
lhand -3.08252 27.9712
lfingers 7.12502
lthumb 22.6348 56.6639
rfemur -30.2655 10.5282 -4.4828
rtibia 34.4843
rfoot -17.5663 -15.5606
rtoes -18.0628
lfemur -20.6608 3.99381 -40.7484
ltibia 20.3307
lfoot -14.7064 8.09355
ltoes -7.99765
3327
root 2.60659 17.7668 -0.457441 12.2172 -8.84935 10.4584
lowerback 20.3864 2.69629 6.91072
upperback 12.0095 4.52874 2.56255
thorax 2.04188 2.5139 -1.95093
lowerneck -0.104965 1.23147 0.229472
upperneck 2.8371 1.15424 27.4669
head 0.660108 0.777773 8.49589
rclavicle 1.59028e-014 -3.18055e-014
rhumerus -40.9576 0.414796 -84.1045
rradius 84.0278
rwrist 27.441
rhand 3.40641 -5.28142
rfingers 7.12502
rthumb 28.8488 -33.0711
lclavicle 1.59028e-014 -3.18055e-014
lhumerus -29.3115 -23.4761 96.7155
lradius 56.5454
lwrist 13.3602
lhand -3.05898 28.2008
lfingers 7.12502
lthumb 22.6574 56.8908
rfemur -30.2736 10.7849 -4.67426
rtibia 34.5531
rfoot -17.5669 -15.4185
rtoes -18.3764
lfemur -20.5187 4.23645 -40.937
ltibia 20.3689
lfoot -14.8375 8.25523
ltoes -8.15655
3328
root 2.63321 17.7594 -0.440809 12.16 -9.26242 10.4258
lowerback 20.4158 2.6159 6.88988
upperback 11.9745 4.42381 2.72921
thorax 1.96291 2.44846 -1.74946
lowerneck -0.122577 1.13773 0.482889
upperneck 2.98288 0.96842 27.9303
head 0.731554 0.701274 8.61504
rclavicle 5.08889e-014 -2.38542e-014
rhumerus -40.9375 0.470808 -84.0138
rradius 84.2885
rwrist 27.6015
rhand 3.54346 -5.3805
rfingers 7.12502
rthumb 28.9797 -33.1477
lclavicle 5.08889e-014 -2.38542e-014
lhumerus -29.5705 -23.4568 96.8945
lradius 56.6572
lwrist 13.5797
lhand -3.0106 28.3003
lfingers 7.12502
lthumb 22.7038 56.9847
rfemur -30.3968 11.0087 -4.80016
rtibia 34.5954
rfoot -17.5454 -15.3187
rtoes -18.5202
lfemur -20.5399 4.33587 -41.0247
ltibia 20.4636
lfoot -15.0372 8.40725
ltoes -7.46118
3329
root 2.65754 17.7518 -0.427977 12.1116 -9.70809 10.389
lowerback 20.4761 2.5375 6.80755
upperback 11.9013 4.31694 2.9155
thorax 1.81921 2.3755 -1.49652
lowerneck -0.163538 1.00918 0.568366
upperneck 3.35599 0.669526 28.558
head 0.887732 0.593977 8.82664
rclavicle 9.54166e-015 -4.45278e-014
rhumerus -40.9711 0.591832 -83.916
rradius 84.5505
rwrist 27.8084
rhand 3.57158 -5.3464
rfingers 7.12502
rthumb 29.0066 -33.109
lclavicle 9.54166e-015 -4.45278e-014
lhumerus -29.8614 -23.4097 97.1461
lradius 56.6547
lwrist 13.833
lhand -3.09942 28.3286
lfingers 7.12502
lthumb 22.6185 57.0234
rfemur -30.5658 11.2476 -4.92246
rtibia 34.633
rfoot -17.5627 -15.1574
rtoes -18.2238
lfemur -20.6067 4.44683 -41.0982
ltibia 20.5725
lfoot -15.2672 8.56511
ltoes -6.84526
3330
root 2.68096 17.7455 -0.412863 12.0414 -10.179 10.341
lowerback 20.4466 2.45834 6.77208
upperback 11.9227 4.2023 3.1143
thorax 1.82965 2.30692 -1.24437
lowerneck -0.546285 0.62779 0.139272
upperneck 4.06637 -0.113664 29.6966
head 1.27926 0.312638 9.32522
rclavicle -1.27222e-014 6.20208e-014
rhumerus -40.8484 0.682929 -83.776
rradius 84.7999
rwrist 28.1713
rhand 3.56216 -5.24181
rfingers 7.12502
rthumb 28.9976 -33.006
lclavicle -1.27222e-014 6.20208e-014
lhumerus -29.9509 -23.379 97.3839
lradius 56.582
lwrist 14.2418
lhand -3.25142 28.4501
lfingers 7.12502
lthumb 22.4727 57.1626
rfemur -30.7093 11.4457 -5.0067
rtibia 34.6624
rfoot -17.5375 -14.9849
rtoes -18.5419
lfemur -20.6612 4.59475 -41.1647
ltibia 20.7137
lfoot -15.4928 8.72648
ltoes -6.26211
3331
root 2.70378 17.7391 -0.394129 11.9271 -10.6369 10.4031
lowerback 20.3747 2.41049 6.69689
upperback 12.0014 4.11356 3.26118
thorax 1.92826 2.25506 -1.02453
lowerneck -0.663389 0.459461 0.291129
upperneck 4.16665 -0.41086 30.0217
head 1.37955 0.187732 9.41665
rclavicle -1.90833e-014 6.36111e-015
rhumerus -40.6139 0.563647 -83.6732
rradius 85.0023
rwrist 28.5575
rhand 3.67852 -5.1639
rfingers 7.12502
rthumb 29.1087 -32.9089
lclavicle -1.90833e-014 6.36111e-015
lhumerus -29.9926 -23.6342 97.5759
lradius 56.5915
lwrist 14.8452
lhand -3.45672 28.5801
lfingers 7.12502
lthumb 22.2756 57.3163
rfemur -30.8029 11.5857 -5.1931
rtibia 34.6937
rfoot -17.4723 -14.8078
rtoes -18.9706
lfemur -20.6543 4.71711 -41.3463
ltibia 20.8593
lfoot -15.6945 8.93801
ltoes -5.90755
3332
root 2.72456 17.7344 -0.376893 11.8412 -11.0364 10.3651
lowerback 20.3304 2.33603 6.68232
upperback 12.0483 4.00513 3.41533
thorax 1.98251 2.19426 -0.830242
lowerneck -0.415796 0.638381 0.89795
upperneck 3.79877 -0.0525294 29.6936
head 1.17294 0.302257 9.18114
rclavicle -3.18055e-014 -5.725e-014
rhumerus -40.3559 0.505558 -83.602
rradius 85.1825
rwrist 28.8839
rhand 3.834 -5.16122
rfingers 7.12502
rthumb 29.2572 -32.8805
lclavicle -3.18055e-014 -5.725e-014
lhumerus -30.1091 -23.8698 97.7153
lradius 56.6371
lwrist 15.2634
lhand -3.53958 28.5304
lfingers 7.12502
lthumb 22.196 57.276
rfemur -30.8824 11.7422 -5.2605
rtibia 34.7167
rfoot -17.4025 -14.6548
rtoes -18.9816
lfemur -20.6551 4.83415 -41.4053
ltibia 20.9885
lfoot -15.9018 9.1359
ltoes -5.72347
3333
root 2.74418 17.7292 -0.360792 11.781 -11.4292 10.2717
lowerback 20.3304 2.22829 6.6899
upperback 12.0448 3.86495 3.57954
thorax 1.95881 2.1153 -0.636895
lowerneck -0.67145 0.0667658 0.514982
upperneck 4.46326 -1.09871 30.8356
head 1.58367 -0.113866 9.67522
rclavicle 6.36111e-015 1.59028e-015
rhumerus -39.9606 0.599114 -83.5624
rradius 85.1702
rwrist 29.0642
rhand 3.97703 -5.21979
rfingers 7.12502
rthumb 29.3938 -32.9151
lclavicle 6.36111e-015 1.59028e-015
lhumerus -30.3192 -23.9334 97.8686
lradius 56.7203
lwrist 15.527
lhand -3.55404 28.6174
lfingers 7.12502
lthumb 22.1821 57.3647
rfemur -30.9797 11.9267 -5.2705
rtibia 34.7239
rfoot -17.3031 -14.5625
rtoes -19.2466
lfemur -20.6846 4.92498 -41.3977
ltibia 21.1312
lfoot -16.1112 9.36157
ltoes -5.87694
